<svg width="2413" height="2417" viewBox="0 0 2413 2417" fill="none" xmlns="http://www.w3.org/2000/svg">
<path d="M304.725 1271.15C291.206 1300.77 295.854 1335.52 316.773 1360.46C337.619 1385.43 371.023 1396.26 402.663 1388.16C496.157 1364.09 616.199 1351.99 724.366 1398.48C808.556 1175.12 904.161 996.785 991.135 860.887C831.535 836.454 499.543 845.316 304.725 1271.15Z" fill="#F0DC42"/>
<path d="M568.351 1037.53C694.462 973.762 824.542 952.336 924.673 970.683C947.158 931.409 969.418 894.823 991.134 860.887C831.535 836.453 499.543 845.316 304.724 1271.15C300.911 1279.51 298.595 1288.28 297.63 1297.11C339.509 1201.63 436.624 1104.15 568.351 1037.53Z" fill="#F7E559"/>
<path d="M1152.8 2119.23C1123.18 2132.74 1088.43 2128.1 1063.49 2107.19C1038.53 2086.33 1027.69 2052.93 1035.8 2021.29C1059.86 1927.8 1071.96 1807.75 1025.47 1699.59C1248.83 1615.4 1427.17 1519.79 1563.06 1432.82C1587.5 1592.42 1578.63 1924.41 1152.8 2119.23Z" fill="#F0DC42"/>
<path d="M1386.42 1855.6C1450.19 1729.49 1471.62 1599.41 1453.27 1499.28C1492.55 1476.8 1529.13 1454.54 1563.06 1432.82C1587.5 1592.42 1578.63 1924.41 1152.8 2119.23C1144.44 2123.05 1135.68 2125.36 1126.84 2126.33C1222.33 2084.45 1319.81 1987.34 1386.42 1855.6Z" fill="#F7E559"/>
<path d="M739.436 2050.82C636.16 2154.1 0 2416.27 0 2416.27C0 2416.27 262.187 1780.12 365.459 1676.85C468.726 1573.58 636.159 1573.58 739.426 1676.85C842.7 1780.12 842.7 1947.56 739.436 2050.82Z" fill="#FFEF00"/>
<path d="M733.261 2015.41C641.468 2107.21 76.0381 2340.23 76.0381 2340.23C76.0381 2340.23 309.075 1774.81 400.865 1683.02C492.651 1591.24 641.468 1591.24 733.254 1683.02C825.045 1774.81 825.045 1923.63 733.261 2015.41Z" fill="#FFD500"/>
<path d="M727.086 1980.01C646.777 2060.32 152.078 2264.2 152.078 2264.2C152.078 2264.2 355.964 1769.51 436.271 1689.2C516.576 1608.89 646.776 1608.89 727.082 1689.2C807.39 1769.5 807.39 1899.71 727.086 1980.01Z" fill="#FFBA00"/>
<path d="M720.911 1944.6C652.085 2013.43 228.117 2188.16 228.117 2188.16C228.117 2188.16 402.852 1764.2 471.677 1695.37C540.501 1626.55 652.084 1626.55 720.909 1695.37C789.735 1764.19 789.735 1875.78 720.911 1944.6Z" fill="#FFA000"/>
<path d="M714.736 1909.2C657.393 1966.55 304.155 2112.12 304.155 2112.12C304.155 2112.12 449.74 1758.89 507.083 1701.54C564.426 1644.2 657.392 1644.2 714.736 1701.54C772.08 1758.88 772.08 1851.85 714.736 1909.2Z" fill="#FF8500"/>
<path fill-rule="evenodd" clip-rule="evenodd" d="M807.232 1459.11L558.61 1583.77C558.61 1583.77 543.405 1640.35 661.326 1760.83C779.266 1881.29 835.492 1866.58 835.492 1866.58L965.391 1620.65L807.232 1459.11Z" fill="#0F3041"/>
<path d="M1905.21 1171.71C2250.58 833.224 2413.54 296.842 2412.6 107.076C2412.38 78.3912 2400.73 50.9831 2380.26 30.7931C2359.78 10.7391 2332.15 -0.343864 2303.42 0.00813563C2116.1 2.46714 1587.62 172.742 1250.38 516.802C1250.38 516.802 918.699 814.392 700.49 1460.55L828.761 1588.82L833.24 1593.3L961.619 1721.68C1607.55 1503.38 1905.21 1171.71 1905.21 1171.71Z" fill="#A7C3FF"/>
<path d="M1045.28 763.429C1129.65 877.387 1225.18 988.797 1331.66 1095.28C1436.36 1199.98 1545.82 1294.04 1657.79 1377.37C1825.06 1260.98 1905.21 1171.71 1905.21 1171.71C2250.58 833.224 2413.54 296.842 2412.6 107.076C2412.38 78.3912 2400.73 50.9831 2380.26 30.7931C2359.78 10.7391 2332.15 -0.343864 2303.42 0.00813563C2116.1 2.46714 1587.62 172.742 1250.38 516.802C1250.38 516.802 1161.39 596.668 1045.28 763.429Z" fill="#041921"/>
<path d="M2412.6 107.076C2412.38 78.3912 2400.73 50.9831 2380.26 30.7931C2359.78 10.7391 2332.15 -0.343864 2303.42 0.00813563C2116.1 2.46714 1587.62 172.742 1250.38 516.802C1250.38 516.802 1171.06 588.008 1064.49 736.275C1148.78 852.185 1245.21 965.463 1353.24 1073.49C1459.56 1179.81 1570.95 1274.84 1684.93 1358.18C1833.73 1251.32 1905.21 1171.71 1905.21 1171.71C2250.58 833.224 2413.54 296.842 2412.6 107.076Z" fill="#ABD2FF"/>
<path d="M1927.45 917.548C1809.52 1035.48 1618.33 1035.49 1500.38 917.538C1382.44 799.59 1382.48 608.425 1500.4 490.498C1618.28 372.618 1809.48 372.544 1927.43 490.492C2045.37 608.439 2045.33 799.669 1927.45 917.548Z" fill="#0F3041"/>
<path d="M1897.09 887.182C1795.92 988.341 1631.92 988.347 1530.75 887.172C1429.57 786 1429.61 622.022 1530.77 520.863C1631.88 419.751 1795.89 419.689 1897.06 520.859C1998.23 622.036 1998.2 786.066 1897.09 887.182Z" fill="#041921"/>
<path d="M1873.53 863.627C1785.38 951.775 1642.47 951.78 1554.31 863.62C1466.14 775.458 1466.17 632.569 1554.32 544.419C1642.43 456.312 1785.34 456.262 1873.5 544.42C1961.66 632.583 1961.64 775.519 1873.53 863.627Z" fill="#FFB200"/>
<mask id="mask0_408_7" style="mask-type:luminance" maskUnits="userSpaceOnUse" x="1488" y="478" width="452" height="452">
<path d="M1873.53 863.627C1785.38 951.775 1642.47 951.78 1554.31 863.62C1466.14 775.458 1466.17 632.569 1554.32 544.419C1642.43 456.312 1785.34 456.262 1873.5 544.42C1961.66 632.583 1961.64 775.519 1873.53 863.627Z" fill="white"/>
</mask>
<g mask="url(#mask0_408_7)">
<path opacity="0.2" d="M1686.88 1177.51L1897.8 141.026L1818.22 124.833L1607.31 1161.32L1686.88 1177.51Z" fill="white"/>
<path opacity="0.2" d="M1493.51 1138.23L1704.41 101.718L1783.98 117.907L1573.08 1154.43L1493.51 1138.23Z" fill="white"/>
</g>
<path d="M2180.21 237.737C2235 292.528 2306.39 320.531 2378.19 321.901C2401.49 232.592 2412.85 157.563 2412.6 107.076C2412.38 78.3912 2400.73 50.9831 2380.26 30.7931C2359.78 10.7391 2332.15 -0.343864 2303.42 0.00813563C2254.43 0.653136 2182.1 12.7932 2095.97 36.4942C2096.54 109.392 2124.59 182.119 2180.21 237.737Z" fill="#0F3041"/>
<path fill-rule="evenodd" clip-rule="evenodd" d="M633.393 1546.27L876.349 1789.23L917.565 1711.2L712.82 1506.45L633.393 1546.27Z" fill="#24505E"/>
<path d="M994.445 1740.45L686.3 1432.31L686.296 1432.31C672.651 1418.76 648.286 1421.09 631.823 1437.56C615.335 1454.04 613.017 1478.47 626.648 1492.1C627.169 1492.62 627.736 1493.07 628.29 1493.55L933.281 1798.53C933.751 1799.09 934.199 1799.65 934.725 1800.18C948.355 1813.81 972.777 1811.49 989.267 1795C1005.76 1778.51 1008.07 1754.09 994.445 1740.45Z" fill="#F0A842"/>
<path d="M1127.38 749.611C1119.1 756.185 1106.99 754.7 1100.37 746.271C1093.75 737.838 1095.18 725.715 1103.53 719.237C1111.88 712.765 1123.91 714.303 1130.46 722.652C1137 730.984 1135.65 743.047 1127.38 749.611Z" fill="#0F3041"/>
<path d="M1107.33 740.814C1106.8 740.153 1106.93 739.181 1107.58 738.671C1113.1 734.344 1115.85 732.188 1121.37 727.858C1122.01 727.351 1122.97 727.451 1123.48 728.11C1124 728.768 1123.89 729.729 1123.24 730.238C1117.72 734.568 1114.97 736.751 1109.46 741.084C1108.81 741.594 1107.84 741.479 1107.33 740.814Z" fill="#24505E"/>
<path d="M1119.71 742.339C1115.33 736.786 1113.13 734.011 1108.77 728.435C1108.26 727.776 1108.37 726.816 1109.01 726.314C1109.67 725.79 1110.63 725.917 1111.14 726.572C1115.49 732.144 1117.69 734.919 1122.06 740.47C1122.58 741.129 1122.47 742.084 1121.81 742.607C1121.17 743.116 1120.23 742.998 1119.71 742.339Z" fill="#24505E"/>
<path d="M1183.92 818.877C1175.82 825.671 1163.66 824.517 1156.83 816.267C1149.99 808.017 1151.11 795.86 1159.29 789.162C1167.45 782.471 1179.52 783.707 1186.29 791.865C1193.04 800.025 1192.01 812.095 1183.92 818.877Z" fill="#0F3041"/>
<path d="M1163.64 810.623C1163.11 809.974 1163.21 809 1163.84 808.474C1169.25 804.008 1171.94 801.777 1177.34 797.303C1177.97 796.777 1178.93 796.868 1179.46 797.508C1180 798.15 1179.91 799.109 1179.28 799.635C1173.88 804.11 1171.18 806.359 1165.78 810.831C1165.15 811.355 1164.18 811.267 1163.64 810.623Z" fill="#24505E"/>
<path d="M1176.03 811.823C1171.5 806.396 1169.26 803.677 1164.76 798.219C1164.23 797.573 1164.32 796.597 1164.95 796.077C1165.6 795.551 1166.56 795.649 1167.1 796.3C1171.59 801.757 1173.84 804.472 1178.36 809.9C1178.89 810.539 1178.83 811.486 1178.19 812.015C1177.55 812.542 1176.57 812.472 1176.03 811.823Z" fill="#24505E"/>
<path d="M1242.25 886.587C1234.33 893.595 1222.17 892.755 1215.11 884.697C1208.06 876.634 1208.87 864.473 1216.87 857.559C1224.85 850.646 1236.93 851.534 1243.9 859.513C1250.88 867.476 1250.16 879.583 1242.25 886.587Z" fill="#0F3041"/>
<path d="M1221.77 878.871C1221.22 878.24 1221.3 877.268 1221.92 876.731C1227.2 872.111 1229.82 869.801 1235.11 865.188C1235.72 864.64 1236.69 864.705 1237.24 865.33C1237.79 865.954 1237.73 866.931 1237.11 867.476C1231.83 872.095 1229.2 874.409 1223.92 879.029C1223.3 879.576 1222.33 879.5 1221.77 878.871Z" fill="#24505E"/>
<path d="M1234.19 879.747C1229.52 874.438 1227.2 871.772 1222.56 866.44C1222.01 865.81 1222.08 864.839 1222.7 864.298C1223.33 863.749 1224.28 863.828 1224.83 864.461C1229.47 869.787 1231.8 872.452 1236.46 877.754C1237.02 878.379 1236.96 879.321 1236.33 879.877C1235.71 880.421 1234.74 880.374 1234.19 879.747Z" fill="#24505E"/>
<path d="M1302.36 952.675C1294.63 959.892 1282.45 959.384 1275.19 951.519C1267.92 943.645 1268.39 931.473 1276.2 924.351C1284 917.236 1296.11 917.803 1303.29 925.583C1310.46 933.356 1310.07 945.468 1302.36 952.675Z" fill="#0F3041"/>
<path d="M1281.68 945.517C1281.12 944.903 1281.15 943.929 1281.75 943.371C1286.91 938.626 1289.48 936.225 1294.64 931.478C1295.24 930.92 1296.21 930.976 1296.78 931.589C1297.35 932.203 1297.3 933.161 1296.69 933.717C1291.55 938.482 1288.96 940.849 1283.81 945.61C1283.21 946.172 1282.25 946.133 1281.68 945.517Z" fill="#24505E"/>
<path d="M1294.11 946.045C1289.3 940.865 1286.9 938.281 1282.12 933.075C1281.56 932.457 1281.6 931.506 1282.22 930.955C1282.84 930.388 1283.8 930.419 1284.36 931.036C1289.13 936.233 1291.52 938.813 1296.32 943.994C1296.89 944.603 1296.86 945.573 1296.25 946.141C1295.65 946.704 1294.68 946.656 1294.11 946.045Z" fill="#24505E"/>
<path d="M1364.16 1017.13C1356.63 1024.55 1344.44 1024.36 1336.97 1016.7C1329.5 1009.03 1329.65 996.834 1337.26 989.504C1344.87 982.18 1356.98 982.442 1364.37 990.025C1371.75 997.606 1371.69 1009.73 1364.16 1017.13Z" fill="#0F3041"/>
<path d="M1343.32 1010.51C1342.73 1009.91 1342.74 1008.95 1343.33 1008.38C1348.37 1003.5 1350.88 1001.05 1355.9 996.158C1356.49 995.584 1357.44 995.595 1358.03 996.196C1358.61 996.795 1358.6 997.762 1358.01 998.338C1352.99 1003.23 1350.49 1005.68 1345.47 1010.57C1344.88 1011.14 1343.91 1011.11 1343.32 1010.51Z" fill="#24505E"/>
<path d="M1355.76 1010.74C1350.81 1005.69 1348.35 1003.15 1343.43 998.082C1342.85 997.483 1342.87 996.507 1343.46 995.932C1344.07 995.349 1345.04 995.386 1345.62 995.986C1350.52 1001.06 1352.96 1003.57 1357.9 1008.62C1358.48 1009.22 1358.48 1010.18 1357.9 1010.77C1357.3 1011.35 1356.35 1011.34 1355.76 1010.74Z" fill="#24505E"/>
<path d="M1427.67 1079.91C1420.34 1087.52 1408.16 1087.69 1400.49 1080.22C1392.82 1072.75 1392.63 1060.55 1400.06 1053.03C1407.47 1045.51 1419.58 1045.43 1427.15 1052.82C1434.74 1060.2 1435 1072.3 1427.67 1079.91Z" fill="#0F3041"/>
<path d="M1406.67 1073.86C1406.07 1073.28 1406.05 1072.31 1406.62 1071.72C1411.52 1066.7 1413.96 1064.2 1418.85 1059.18C1419.42 1058.59 1420.39 1058.57 1420.99 1059.15C1421.58 1059.74 1421.6 1060.69 1421.02 1061.28C1416.13 1066.31 1413.69 1068.83 1408.8 1073.85C1408.23 1074.44 1407.27 1074.44 1406.67 1073.86Z" fill="#24505E"/>
<path d="M1419.1 1073.75C1414.03 1068.84 1411.49 1066.37 1406.44 1061.43C1405.85 1060.84 1405.84 1059.88 1406.42 1059.29C1407 1058.69 1407.96 1058.69 1408.56 1059.28C1413.6 1064.21 1416.14 1066.67 1421.21 1071.58C1421.82 1072.16 1421.83 1073.11 1421.24 1073.71C1420.67 1074.3 1419.7 1074.33 1419.1 1073.75Z" fill="#24505E"/>
<path d="M1492.83 1140.98C1485.7 1148.78 1473.54 1149.26 1465.67 1142C1457.8 1134.74 1457.3 1122.56 1464.52 1114.84C1471.73 1107.13 1483.83 1106.72 1491.61 1113.91C1499.39 1121.09 1499.95 1133.18 1492.83 1140.98Z" fill="#0F3041"/>
<path d="M1471.67 1135.51C1471.06 1134.94 1471.01 1133.97 1471.56 1133.36C1476.33 1128.22 1478.7 1125.63 1483.45 1120.48C1484.02 1119.88 1484.98 1119.84 1485.6 1120.41C1486.21 1120.97 1486.25 1121.93 1485.68 1122.53C1480.94 1127.69 1478.57 1130.28 1473.82 1135.43C1473.26 1136.04 1472.29 1136.07 1471.67 1135.51Z" fill="#24505E"/>
<path d="M1484.1 1135.05C1478.89 1130.27 1476.31 1127.87 1471.13 1123.06C1470.52 1122.49 1470.48 1121.54 1471.04 1120.93C1471.61 1120.33 1472.56 1120.28 1473.17 1120.85C1478.35 1125.65 1480.93 1128.04 1486.13 1132.81C1486.75 1133.38 1486.82 1134.35 1486.25 1134.96C1485.7 1135.57 1484.71 1135.61 1484.1 1135.05Z" fill="#24505E"/>
<path d="M1559.62 1200.32C1552.71 1208.31 1540.53 1209.12 1532.47 1202.07C1524.41 1195.01 1523.59 1182.85 1530.59 1174.93C1537.6 1167.02 1549.7 1166.3 1557.67 1173.28C1565.64 1180.24 1566.53 1192.33 1559.62 1200.32Z" fill="#0F3041"/>
<path d="M1538.3 1195.4C1537.67 1194.85 1537.62 1193.9 1538.16 1193.27C1542.78 1187.99 1545.09 1185.35 1549.7 1180.07C1550.25 1179.45 1551.22 1179.38 1551.85 1179.94C1552.47 1180.49 1552.53 1181.45 1551.99 1182.07C1547.37 1187.36 1545.09 1189.99 1540.46 1195.27C1539.92 1195.89 1538.93 1195.95 1538.3 1195.4Z" fill="#24505E"/>
<path d="M1550.73 1194.61C1545.4 1189.98 1542.75 1187.67 1537.44 1183C1536.81 1182.45 1536.75 1181.47 1537.3 1180.85C1537.85 1180.22 1538.81 1180.17 1539.43 1180.73C1544.74 1185.39 1547.38 1187.7 1552.71 1192.34C1553.34 1192.89 1553.43 1193.84 1552.88 1194.48C1552.34 1195.11 1551.36 1195.17 1550.73 1194.61Z" fill="#24505E"/>
<path d="M1628.01 1257.88C1621.31 1266.06 1609.15 1267.19 1600.91 1260.35C1592.66 1253.51 1591.51 1241.37 1598.3 1233.27C1605.08 1225.17 1617.17 1224.14 1625.33 1230.91C1633.48 1237.67 1634.7 1249.71 1628.01 1257.88Z" fill="#0F3041"/>
<path d="M1606.54 1253.54C1605.9 1253.01 1605.83 1252.03 1606.36 1251.41C1610.83 1246.01 1613.07 1243.3 1617.54 1237.9C1618.06 1237.26 1619.03 1237.19 1619.68 1237.72C1620.31 1238.25 1620.41 1239.22 1619.88 1239.85C1615.41 1245.25 1613.17 1247.93 1608.71 1253.34C1608.18 1253.97 1607.2 1254.08 1606.54 1253.54Z" fill="#24505E"/>
<path d="M1618.97 1252.42C1613.51 1247.93 1610.78 1245.67 1605.35 1241.14C1604.7 1240.6 1604.63 1239.63 1605.16 1239C1605.7 1238.36 1606.64 1238.28 1607.29 1238.82C1612.73 1243.34 1615.43 1245.59 1620.89 1250.09C1621.53 1250.62 1621.63 1251.58 1621.1 1252.23C1620.58 1252.86 1619.62 1252.96 1618.97 1252.42Z" fill="#24505E"/>
<path d="M1697.93 1313.64C1691.46 1321.99 1679.34 1323.43 1670.91 1316.81C1662.47 1310.19 1660.99 1298.07 1667.56 1289.79C1674.13 1281.52 1686.18 1280.18 1694.53 1286.73C1702.87 1293.27 1704.41 1305.29 1697.93 1313.64Z" fill="#0F3041"/>
<path d="M1676.37 1309.85C1675.7 1309.34 1675.6 1308.38 1676.11 1307.74C1680.44 1302.22 1682.61 1299.45 1686.94 1293.94C1687.45 1293.29 1688.41 1293.17 1689.07 1293.69C1689.73 1294.2 1689.83 1295.16 1689.33 1295.81C1685 1301.33 1682.83 1304.08 1678.51 1309.6C1678 1310.25 1677.03 1310.38 1676.37 1309.85Z" fill="#24505E"/>
<path d="M1688.75 1308.41C1683.17 1304.06 1680.4 1301.86 1674.85 1297.48C1674.19 1296.96 1674.07 1296.01 1674.58 1295.37C1675.1 1294.72 1676.05 1294.6 1676.72 1295.12C1682.26 1299.49 1685.03 1301.69 1690.61 1306.04C1691.26 1306.56 1691.39 1307.5 1690.88 1308.18C1690.37 1308.82 1689.41 1308.92 1688.75 1308.41Z" fill="#24505E"/>
</svg>
