<svg width="175" height="40" viewBox="0 0 175 40" fill="none" xmlns="http://www.w3.org/2000/svg">
<path fill-rule="evenodd" clip-rule="evenodd" d="M8.03339 24.8218C6.1264 21.1729 5.13024 17.0403 4.78049 12.5565C7.70083 10.8319 9.95458 8.06281 11.0557 4.74522H24.6691C24.6754 4.76416 24.6817 4.78308 24.6881 4.80198L22.2816 8.96996L23.3723 9.79666L29.273 3.75478L29.1332 3.35186C28.9164 2.72755 28.7609 2.07321 28.6741 1.3963C28.5791 0.654793 27.968 0 27.1395 0H8.58525C7.7567 0 7.14563 0.654897 7.0506 1.39635C6.59216 4.97335 4.21267 7.92353 1.02124 9.13376C0.417944 9.36253 -0.0230853 9.95378 0.000935853 10.6481C0.215397 16.8469 1.46657 22.7758 4.40634 27.9554L4.8589 28.7528L8.26512 25.2651L8.03339 24.8218Z" fill="#2EB263"/>
<path fill-rule="evenodd" clip-rule="evenodd" d="M8.06106 33.0202L10.8497 30.1649L10.8522 30.1623L15.8084 25.034L16.8862 25.8835L13.2745 31.5595C14.583 32.7338 16.0709 33.8214 17.7579 34.8119C26.5528 29.6477 30.0406 21.7776 30.7434 12.4356C30.4383 12.2484 30.1408 12.0497 29.8514 11.8401L29.2042 11.3714L32.5247 7.97145L32.9977 8.2746C33.48 8.58368 33.9914 8.84876 34.5266 9.06454C35.1138 9.3013 35.5389 9.8841 35.5164 10.565C35.1227 22.4716 30.9094 33.343 18.4431 39.8328C18.015 40.0557 17.5008 40.0557 17.0726 39.8328C13.6304 38.0408 10.8077 35.909 8.51899 33.5018L8.06106 33.0202Z" fill="#2EB263"/>
<path d="M15.8084 25.034L16.8862 25.8835L19.3211 21.5558L15.8084 25.034Z" fill="#2EB263"/>
<path d="M23.3723 9.79666L22.2816 8.96996L19.8384 13.4523L23.3723 9.79666Z" fill="#2EB263"/>
<path d="M46.8125 29.0586C48.1906 30.1204 49.7475 30.9434 51.4809 31.5287L51.4848 31.53C53.2181 32.0927 54.9864 32.3744 56.7885 32.3744C58.6991 32.3744 60.3992 32.0823 61.8821 31.4891L61.8863 31.4873C63.368 30.8719 64.5264 30.0089 65.3425 28.89C66.1827 27.7463 66.6009 26.4271 66.6009 24.9454C66.6009 22.8832 65.8293 21.2631 64.2755 20.1324C62.7493 18.9999 60.3084 18.2066 57.0044 17.7188C55.0751 17.4338 53.7204 17.0226 52.8995 16.5096C52.1029 16.0117 51.7375 15.3757 51.7375 14.5841C51.7375 13.7806 52.1368 13.1086 53.0295 12.5607L53.0319 12.5593L53.0343 12.5577C53.9348 11.9847 55.112 11.6848 56.5899 11.6848C57.6992 11.6848 58.8107 11.866 59.9255 12.2304C61.0364 12.5936 62.0498 13.1271 62.9675 13.8314L63.2513 14.0492L65.6035 10.7402L65.3416 10.5375C64.1395 9.60767 62.7699 8.88398 61.2355 8.36501C59.7002 7.84569 58.1401 7.58545 56.5568 7.58545C54.776 7.58545 53.174 7.87847 51.7571 8.47243C50.3628 9.04409 49.2512 9.86222 48.4368 10.9325L48.4361 10.9334C47.6392 11.9882 47.2409 13.1982 47.2409 14.551C47.2409 16.6714 47.9842 18.3453 49.4921 19.5234C50.9764 20.683 53.3334 21.4663 56.509 21.9104L56.5117 21.9108C58.5072 22.1739 59.9179 22.575 60.7832 23.09C61.6227 23.5897 62.0051 24.236 62.0051 25.0448C62.0051 25.9425 61.5774 26.6792 60.6455 27.2675C59.7024 27.8408 58.4259 28.1427 56.7885 28.1427C55.3921 28.1427 54.0167 27.9173 52.661 27.4654C51.3282 27.0139 50.1979 26.3936 49.2642 25.6084L48.9745 25.3648L46.5528 28.8585L46.8125 29.0586Z" fill="#131413"/>
<path fill-rule="evenodd" clip-rule="evenodd" d="M85.8152 25.1248L85.8397 24.8064C85.884 24.2307 85.9069 23.7895 85.9069 23.4889C85.9069 20.7306 85.1364 18.527 83.5567 16.9241C81.9764 15.3206 79.8048 14.5372 77.0876 14.5372C75.3599 14.5372 73.8216 14.9126 72.4833 15.6736C71.1472 16.4111 70.1078 17.4508 69.3705 18.7871C68.6323 20.1252 68.2683 21.6628 68.2683 23.3896C68.2683 25.1607 68.6434 26.7321 69.4046 28.0931C70.1648 29.4523 71.2381 30.5135 72.618 31.2724L72.621 31.2741L72.624 31.2756C74.0276 32.012 75.6513 32.3744 77.4849 32.3744C78.918 32.3744 80.2756 32.1126 81.5545 31.5875C82.853 31.0633 83.934 30.3412 84.7891 29.4168L85.0176 29.1697L82.2758 26.5085L82.0357 26.7595C81.5965 27.2186 80.9741 27.602 80.1491 27.8981C79.3263 28.1935 78.4719 28.3413 77.5842 28.3413C76.2074 28.3413 75.1052 28.0032 74.2511 27.3525C73.5027 26.7823 73.0297 26.0448 72.8292 25.1248H85.8152ZM72.8885 21.5551H81.552C81.5472 21.5313 81.5424 21.5076 81.5373 21.484C81.3501 20.6148 80.9202 19.9222 80.2496 19.3892L80.2462 19.3865C79.483 18.7638 78.4736 18.4379 77.1869 18.4379C75.9682 18.4379 75.0019 18.7519 74.2593 19.354C73.6076 19.8824 73.1471 20.6093 72.8885 21.5551Z" fill="#131413"/>
<path d="M101.73 15.5455C100.611 14.87 99.3235 14.5372 97.8792 14.5372C95.7265 14.5372 93.9415 15.1916 92.5502 16.5095L92.525 14.8682H88.5302V31.911H92.9275V22.9592C92.9275 21.6701 93.3298 20.6344 94.1206 19.8234L94.1235 19.8203C94.9137 18.9897 95.9241 18.5703 97.184 18.5703C98.339 18.5703 99.2095 18.9376 99.8394 19.6463C100.472 20.3584 100.812 21.3808 100.812 22.7606V31.911H105.209V22.5289C105.209 20.9413 104.914 19.5403 104.312 18.3361C103.71 17.1323 102.849 16.1987 101.73 15.5455Z" fill="#131413"/>
<path d="M117.93 31.9364C118.533 31.8198 119.163 31.6125 119.819 31.318L120.107 31.1891L118.853 27.549L118.506 27.7118C117.837 28.0252 117.203 28.1758 116.6 28.1758C115.922 28.1758 115.453 27.9797 115.138 27.6314C114.837 27.275 114.66 26.7284 114.66 25.9385V18.7027H119.361V14.8682H114.66V10.1613L110.296 10.6331V14.8682H107.218V18.7027H110.296V25.9385C110.296 27.9098 110.772 29.4643 111.779 30.5435C112.788 31.6241 114.214 32.1427 116.004 32.1427C116.707 32.1427 117.35 32.075 117.93 31.9364Z" fill="#131413"/>
<path d="M122.353 12.3782L122.356 12.3814L122.359 12.3844C122.873 12.8723 123.524 13.1082 124.285 13.1082C125.064 13.1082 125.728 12.8743 126.244 12.3844L126.244 12.3841C126.776 11.8777 127.046 11.2467 127.046 10.5123C127.046 9.74411 126.783 9.09786 126.244 8.60727C125.73 8.09664 125.066 7.85028 124.285 7.85028C123.521 7.85028 122.868 8.09976 122.356 8.61022C121.839 9.10262 121.59 9.74814 121.59 10.5123C121.59 11.2412 121.845 11.8704 122.353 12.3782Z" fill="#131413"/>
<path d="M126.483 14.8682H122.086V31.911H126.483V14.8682Z" fill="#131413"/>
<path d="M143.529 15.5455C142.41 14.87 141.123 14.5372 139.679 14.5372C137.526 14.5372 135.741 15.1916 134.35 16.5095L134.325 14.8682H130.33V31.911H134.727V22.9592C134.727 21.6701 135.129 20.6344 135.92 19.8234L135.923 19.8203C136.713 18.9897 137.724 18.5703 138.984 18.5703C140.139 18.5703 141.009 18.9376 141.639 19.6463C142.272 20.3584 142.611 21.3808 142.611 22.7606V31.911H147.008V22.5289C147.008 20.9413 146.713 19.5403 146.111 18.3361C145.509 17.1323 144.648 16.1987 143.529 15.5455Z" fill="#131413"/>
<path fill-rule="evenodd" clip-rule="evenodd" d="M167.054 25.1248L167.079 24.8064C167.123 24.2307 167.146 23.7895 167.146 23.4889C167.146 20.7306 166.376 18.527 164.796 16.9241C163.216 15.3206 161.044 14.5372 158.327 14.5372C156.599 14.5372 155.061 14.9126 153.722 15.6738C152.386 16.4113 151.347 17.4509 150.61 18.7871C149.871 20.1252 149.508 21.6628 149.508 23.3896C149.508 25.1607 149.883 26.7321 150.644 28.0931C151.404 29.4523 152.477 30.5135 153.857 31.2724L153.86 31.2741L153.863 31.2756C155.267 32.012 156.891 32.3744 158.724 32.3744C160.157 32.3744 161.514 32.1127 162.793 31.5877C164.092 31.0635 165.173 30.3413 166.028 29.4168L166.257 29.1697L163.515 26.5085L163.275 26.7595C162.836 27.2186 162.213 27.602 161.388 27.8981C160.565 28.1935 159.711 28.3413 158.823 28.3413C157.447 28.3413 156.344 28.0032 155.49 27.3525C154.742 26.7823 154.269 26.0448 154.068 25.1248H167.054ZM154.128 21.5551H162.791C162.612 20.6525 162.178 19.9366 161.489 19.3892L161.485 19.3865C160.722 18.7638 159.713 18.4379 158.426 18.4379C157.207 18.4379 156.241 18.7519 155.499 19.354C154.847 19.8824 154.386 20.6093 154.128 21.5551Z" fill="#131413"/>
<path d="M174.167 8.0489H169.769V31.911H174.167V8.0489Z" fill="#131413"/>
</svg>
